<svg xmlns="http://www.w3.org/2000/svg" width="48" height="48" viewBox="0 0 48 48"><defs><style>.cls-1{fill:#f6b445;}.cls-2{fill:#fed049;}.cls-3{fill:none;stroke:#474c54;stroke-linecap:round;stroke-linejoin:round;stroke-width:2px;}</style></defs><title>15-Email</title><g id="_15-Email" data-name="15-Email"><path class="cls-1" d="M47,6V34a4.025,4.025,0,0,1-1.17,2.83L39,30,28,19l-.28-.43Z"/><path class="cls-1" d="M20.25,18.61,20,19,9,30,2.17,36.83A4.025,4.025,0,0,1,1,34V8a3.944,3.944,0,0,1,.18-1.19L2,7Z"/><path class="cls-2" d="M47,6,27.72,18.57,24,21l-3.75-2.39L2,7l-.82-.19A4,4,0,0,1,5,4H42C46,4,47,6,47,6Z"/><path class="cls-2" d="M39,30,28,19l-.28-.43L24,21l-3.75-2.39L20,19,9,30,2.17,36.83A4.025,4.025,0,0,0,5,38H23v6l6-6H43a4.025,4.025,0,0,0,2.83-1.17Z"/><path class="cls-3" d="M42,4H5A4,4,0,0,0,1,8V34a4,4,0,0,0,4,4H23v6l6-6H43a4,4,0,0,0,4-4V6L24,21,2,7"/><line class="cls-3" x1="39" y1="30" x2="28" y2="19"/><line class="cls-3" x1="9" y1="30" x2="20" y2="19"/></g></svg>